<?xml version="1.0" encoding="utf-8"?>
<!-- Generator: Adobe Illustrator 17.0.0, SVG Export Plug-In . SVG Version: 6.00 Build 0)  -->
<!DOCTYPE svg PUBLIC "-//W3C//DTD SVG 1.1//EN" "http://www.w3.org/Graphics/SVG/1.1/DTD/svg11.dtd">
<svg version="1.1" id="Layer_1" xmlns="http://www.w3.org/2000/svg" xmlns:xlink="http://www.w3.org/1999/xlink" x="0px" y="0px"
	 width="500px" height="500px" viewBox="0 0 500 500" enable-background="new 0 0 500 500" xml:space="preserve">
<g id="_x30_35---Mixing-Dough">
	<path id="Shape" fill="#A56B44" d="M395.144,26.738L338.89,82.934l16.105,16.162l56.253-56.253
		c2.145-2.132,3.357-5.028,3.369-8.052c-0.019-4.605-2.802-8.748-7.057-10.507C403.305,22.523,398.409,23.491,395.144,26.738
		L395.144,26.738z"/>
	<path id="Shape_1_" fill="#E47E26" d="M197.6,317.884v19.589c0,6.308,5.114,11.422,11.422,11.422h79.954
		c6.308,0,11.422-5.114,11.422-11.422v-19.589H197.6z"/>
	<path id="Shape_2_" fill="#95A5A4" d="M288.976,154.721c-2.32,0.014-4.418-1.378-5.308-3.521c-0.89-2.143-0.395-4.611,1.253-6.245
		l57.967-57.967c2.239-2.239,5.87-2.239,8.11,0c2.239,2.239,2.239,5.87,0,8.11l-57.967,57.967
		C291.953,154.134,290.494,154.73,288.976,154.721L288.976,154.721z"/>
	<path id="Shape_3_" fill="#E47E26" d="M248.999,326.051c-91.469,0-165.619-74.15-165.619-165.619v-5.711
		c0-6.308,5.114-11.422,11.422-11.422h308.393c6.308,0,11.422,5.114,11.422,11.422v5.711
		C414.618,251.901,340.468,326.051,248.999,326.051z"/>
	<path id="Shape_4_" fill="#F19C22" d="M392.574,143.299c2.924,0.104,5.687,1.367,7.679,3.509s3.051,4.989,2.943,7.913v5.711
		c0,91.376-69.046,165.619-154.197,165.619S94.803,251.465,94.803,160.432v-5.711c-0.108-2.924,0.951-5.771,2.943-7.913
		c1.992-2.142,4.755-3.405,7.679-3.509H392.574z"/>
	<path id="Shape_5_" fill="#95A5A4" d="M329.296,154.721h-87.721c-2.105,0.01-4.046-1.139-5.049-2.99s-0.907-4.104,0.251-5.862
		c10.451-15.991,60.879-55.168,100.285-68.532c2.011-0.632,4.206-0.105,5.711,1.371l16.162,16.162
		c1.476,1.505,2.003,3.7,1.371,5.711c-6.713,18.114-15.551,35.367-26.328,51.399C332.979,153.624,331.219,154.655,329.296,154.721z
		 M254.71,143.299h71.502c8.744-13.493,16.164-27.799,22.159-42.718l-10.965-10.965C306.747,102.222,278.705,120.427,254.71,143.299
		L254.71,143.299z"/>
	<g>
		<path id="Shape_6_" fill="#F3D55B" d="M174.756,143.299v11.422c0,6.308,5.114,11.422,11.422,11.422h79.954
			c6.308,0,11.422,5.114,11.422,11.422v68.532c0,6.308,5.114,11.422,11.422,11.422c6.308,0,11.422-5.114,11.422-11.422v-68.532
			c0-6.308,5.114-11.422,11.422-11.422c6.308,0,11.422,5.114,11.422,11.422v34.266c0,6.308,5.114,11.422,11.422,11.422
			c6.308,0,11.422-5.114,11.422-11.422v-34.266c0-6.308,5.114-11.422,11.422-11.422c6.308,0,11.422-5.114,11.422-11.422v-11.422
			H174.756z"/>
		<path id="Shape_7_" fill="#F3D55B" d="M111.936,206.12c-2.622,0.104-4.978-1.592-5.711-4.112
			c-3.378-11.673-5.296-23.72-5.711-35.865c0-2.04,1.089-3.926,2.855-4.946s3.944-1.02,5.711,0s2.855,2.906,2.855,4.946
			c0.564,11.081,2.482,22.052,5.711,32.667c0.516,1.765,0.151,3.671-0.981,5.12S113.773,206.194,111.936,206.12z"/>
		<path id="Shape_8_" fill="#F3D55B" d="M129.068,243.527c-1.931,0.009-3.735-0.957-4.797-2.57
			c-3.152-4.891-6.013-9.963-8.566-15.191c-1.083-1.846-1.042-4.143,0.106-5.95c1.148-1.807,3.209-2.82,5.341-2.626
			c2.132,0.195,3.975,1.565,4.776,3.55c2.368,4.798,5.019,9.451,7.938,13.935c1.158,1.758,1.255,4.011,0.251,5.862
			S131.174,243.537,129.068,243.527z"/>
	</g>
</g>
<g>
	<path fill="#6D3417" d="M49.364,409.23c-5.25,8.25-11.549,12.149-17.999,18.6l-0.6-6.6c3.9-3.15,7.05-6.9,9.899-10.95
		c-3.15-0.3-4.05-1.5-4.05-4.649c0-10.8,15.299-21.6,18.899-21.6c1.5,0,2.7,1.2,2.7,2.551c0,1.499-0.45,2.85-1.05,4.199
		c14.099-1.95,22.349-3.75,23.849-1.95c2.25,2.851,3.3,5.25,3.6,7.95c0,4.649-2.85,6.899-6.3,9.749
		c-4.35,3.75-11.699,11.1-11.699,17.1c0,2.4,2.4,4.2,4.649,4.2c6.45,0,15.899-9.75,20.85-13.5l1.05,5.55
		c-5.7,6.45-22.949,23.1-31.499,23.1c-6.299,0-10.199-5.85-10.199-11.55c0-10.199,7.8-18.149,13.799-25.349l-0.3-0.3L49.364,409.23z
		"/>
	<path fill="#6D3417" d="M146.711,419.431c-9.15,10.649-25.649,24.749-40.499,24.749c-10.95,0-16.049-9.75-16.349-19.649
		c-0.6-19.649,21.149-39.749,40.648-39.599c4.8,0,10.8,1.2,10.8,7.199c0,7.351-7.35,18.449-36.148,27.899l-0.3,3.3
		c-0.45,5.7,4.5,7.649,9.3,7.649c10.649,0,23.249-10.949,31.198-17.249L146.711,419.431z M128.111,395.281
		c0-1.05-0.75-1.95-1.8-1.65c-7.5,1.95-16.199,9.15-20.249,19.05C119.262,408.181,128.262,397.831,128.111,395.281z"/>
	<path fill="#6D3417" d="M196.811,415.98l1.5,5.699c-9.15,9.15-25.499,22.8-37.499,22.199c-10.05-0.449-21.149-6.149-23.849-17.099
		c-0.9,0.899-1.95,1.949-3.3,1.949c-1.5,0-2.55-1.5-2.55-2.85c0-1.95,2.4-4.05,3.6-5.25l32.549-29.849
		c0.3-4.949,3.149-9.749,8.549-9.749c4.5,0,5.4,1.35,5.851,5.55c0.6,5.699,2.85,10.799,2.85,17.398
		c0,12.3-9.899,21.449-19.499,27.299c9.6,1.65,15.449-2.85,22.799-8.399L196.811,415.98z M145.813,419.13
		c5.55,0.301,8.85,4.95,11.699,8.85c9-5.55,11.399-8.1,11.85-16.799c-0.45-3.15-1.05-7.2-1.95-12.3L145.813,419.13z"/>
	<path fill="#6D3417" d="M254.108,419.431c-9.149,10.649-25.648,24.749-40.498,24.749c-10.949,0-16.05-9.75-16.35-19.649
		c-0.6-19.649,21.149-39.749,40.648-39.599c4.8,0,10.8,1.2,10.8,7.199c0,7.351-7.35,18.449-36.148,27.899l-0.3,3.3
		c-0.45,5.7,4.499,7.649,9.299,7.649c10.65,0,23.249-10.949,31.199-17.249L254.108,419.431z M235.51,395.281
		c0-1.05-0.75-1.95-1.8-1.65c-7.5,1.95-16.2,9.15-20.25,19.05C226.66,408.181,235.659,397.831,235.51,395.281z"/>
	<path fill="#6D3417" d="M247.961,466.828c-1.2,2.25-3.899,6.3-6.75,6.3c-3.449,0-4.35-4.05-4.35-6.75
		c-0.15-7.499,3.15-14.999,9.3-23.698c6.899-9.75,14.399-22.05,24.148-38.549l-0.3-0.3l-23.699,22.648l-0.6-7.049l39.748-42.749
		c3.601-3.899,6.3-8.249,12-8.249c2.1,0,6.899,0.75,6.899,3.6c0,3.3-7.8,10.499-10.199,13.05c-5.1,5.399-9.75,10.949-12.75,17.699
		l0.301,0.3c6.449-4.65,21.599-14.55,29.698-14.55c4.05,0,6.3,3.15,6.3,7.05c0,8.25-7.5,18.6-24.299,33.449
		c12.899,0.899,15.899-1.5,31.948-15.3l1.051,6.899c-11.1,10.8-24.6,21.6-40.799,21.6c-4.05,0-7.05-1.2-10.649-3
		c-2.25,0.45-4.5,0.899-6.899,0.899c-2.101,0-4.051-0.449-6-0.899L247.961,466.828z M295.509,413.73c1.65-2.1,3.75-4.649,3.75-7.35
		c0-1.05-0.45-2.1-1.649-2.1c-2.4,0-9.6,4.649-11.55,5.999c-5.55,4.05-9.75,9.15-13.8,14.55c4.35-0.3,8.55,0.15,12.6,1.5
		L295.509,413.73z"/>
	<path fill="#6D3417" d="M334.209,417.63l-0.301,4.05c8.1-7.35,39.898-34.798,50.099-34.798c5.1,0,7.8,6.449,7.8,10.799
		c0,13.95-20.25,21.6-30.299,27.6c2.85,3.899,4.5,6.3,9.749,6.6c2.851,0.149,8.7-1.95,27.299-16.8l1.5,6.15
		c-7.499,6.6-25.499,23.849-35.548,23.849c-9.9,0-16.8-11.399-21.449-18.6c-3.3,3-5.7,6.45-7.95,10.2c-1.2,2.25-2.55,4.5-5.399,4.5
		c-5.25,0-6.6-14.55-6.6-18.149c0-9.6,5.999-17.399,11.1-25.35c16.199-25.499,52.197-54.298,58.797-53.848
		c2.101,0.15,3.75,1.8,3.75,3.9C396.756,358.083,343.208,407.73,334.209,417.63z M371.407,411.181c2.25-1.65,7.199-4.8,7.199-7.95
		c0-0.899-1.199-1.199-1.949-1.199c-5.55,0-21.3,10.499-25.05,15.599c2.101,0.75,4.051,1.801,5.7,3.3L371.407,411.181z"/>
	<path fill="#6D3417" d="M440.556,401.881c3.149-2.85,17.849-17.1,21.599-17.1c1.2,0,2.85,0.45,3.45,8.25
		c0.3,3.6-3.75,7.05-6.15,9.149c-4.8,4.35-15.449,16.199-15.449,22.949c0,2.4,1.351,3.3,3.75,3.3c5.7,0,18.6-10.499,23.1-14.1
		l0.899,6.45c-7.649,7.35-23.549,24.599-34.648,24.599c-5.55,0-8.85-4.649-8.85-9.899c0-4.5,1.649-8.699,3.149-12.6l-0.3-0.3
		c-5.85,5.1-15.899,18.6-24.148,18.6c-7.35,0-11.4-8.4-11.4-14.85c0-14.55,11.25-29.549,20.85-35.849c2.1-1.35,4.05-1.65,6.6-1.65
		c2.1,0,9.75-1.35,9.149,3.15c-0.3,2.399-4.35,6.6-5.999,7.949c-4.65,5.25-5.55,6.6-11.4,10.8c-4.649,3.3-8.249,6.6-8.249,12.899
		c0,0.75,0.149,2.25,1.2,2.25c2.699,0,10.949-4.35,17.999-10.649L440.556,401.881z"/>
</g>
</svg>
